<svg xmlns="http://www.w3.org/2000/svg" width="233.55" height="75.8" viewBox="0 0 233.55 75.8">
  <defs>
    <style>
      .cls-1 {
        fill: #8a40c3;
      }
    </style>
  </defs>
  <g id="Component_1_1" data-name="Component 1 – 1" transform="translate(0 0)">
    <path id="Path_5" data-name="Path 5" class="cls-1" d="M54.925,39.15a15.537,15.537,0,0,1,1.75-7.525,12.509,12.509,0,0,1,4.85-5,14.033,14.033,0,0,1,7.1-1.775,13.65,13.65,0,0,1,8.525,2.575,12.525,12.525,0,0,1,4.525,7.225h-7.55A5.521,5.521,0,0,0,72.1,31.825,5.879,5.879,0,0,0,68.575,30.8a5.773,5.773,0,0,0-4.75,2.175,9.627,9.627,0,0,0-1.75,6.175,9.538,9.538,0,0,0,1.75,6.125,5.773,5.773,0,0,0,4.75,2.175,5.309,5.309,0,0,0,5.55-3.8h7.55a12.777,12.777,0,0,1-4.55,7.15,13.408,13.408,0,0,1-8.5,2.65,14.033,14.033,0,0,1-7.1-1.775,12.509,12.509,0,0,1-4.85-5A15.537,15.537,0,0,1,54.925,39.15Zm44.2,14.3a14.59,14.59,0,0,1-7.2-1.775A12.781,12.781,0,0,1,86.9,46.65a15.057,15.057,0,0,1-1.825-7.5,14.737,14.737,0,0,1,1.875-7.5,13.03,13.03,0,0,1,5.125-5.025,15.694,15.694,0,0,1,14.5,0A13.03,13.03,0,0,1,111.7,31.65a14.738,14.738,0,0,1,1.875,7.5,14.437,14.437,0,0,1-1.925,7.5,13.33,13.33,0,0,1-5.2,5.025A15.121,15.121,0,0,1,99.125,53.45Zm0-6.1a7.282,7.282,0,0,0,3.575-.925,6.722,6.722,0,0,0,2.675-2.775,9.352,9.352,0,0,0,1-4.5,8.338,8.338,0,0,0-2.075-6.075,6.821,6.821,0,0,0-5.075-2.125A6.66,6.66,0,0,0,94.2,33.075a8.464,8.464,0,0,0-2.025,6.075,8.6,8.6,0,0,0,1.975,6.075A6.5,6.5,0,0,0,99.125,47.35Zm45.75-22.05V53h-7.05V49.5a9.242,9.242,0,0,1-3.525,2.825,10.943,10.943,0,0,1-4.725,1.025,11.736,11.736,0,0,1-5.75-1.375,9.693,9.693,0,0,1-3.925-4.05,13.383,13.383,0,0,1-1.425-6.375V25.3h7V40.55a7.182,7.182,0,0,0,1.65,5.075,5.844,5.844,0,0,0,4.5,1.775,5.907,5.907,0,0,0,4.55-1.775,7.182,7.182,0,0,0,1.65-5.075V25.3Zm13.9,4.3a9.632,9.632,0,0,1,8.5-4.7v7.35h-1.85a7.09,7.09,0,0,0-4.975,1.55q-1.675,1.55-1.675,5.4V53h-7V25.3h7Zm23.8,23.85a14.606,14.606,0,0,1-6.1-1.225A10.779,10.779,0,0,1,172.2,48.9a8.427,8.427,0,0,1-1.725-4.65h7.05A3.84,3.84,0,0,0,179.1,46.9a5.478,5.478,0,0,0,3.425,1.05,5.318,5.318,0,0,0,3.125-.8,2.422,2.422,0,0,0,1.125-2.05,2.162,2.162,0,0,0-1.375-2.025,25.874,25.874,0,0,0-4.375-1.475,37.075,37.075,0,0,1-5.075-1.55,8.81,8.81,0,0,1-3.4-2.45,6.576,6.576,0,0,1-1.425-4.45,7.18,7.18,0,0,1,1.325-4.2,8.9,8.9,0,0,1,3.8-3,14.245,14.245,0,0,1,5.825-1.1,11.894,11.894,0,0,1,7.9,2.475A9.17,9.17,0,0,1,193.225,34h-6.7a3.627,3.627,0,0,0-1.375-2.625,6.2,6.2,0,0,0-6.2-.275,2.232,2.232,0,0,0-1.025,1.95,2.292,2.292,0,0,0,1.4,2.125,21.74,21.74,0,0,0,4.35,1.475,36.925,36.925,0,0,1,4.95,1.55A8.746,8.746,0,0,1,192,40.675a6.8,6.8,0,0,1,1.475,4.425,7.338,7.338,0,0,1-1.325,4.3,8.728,8.728,0,0,1-3.8,2.975A14.4,14.4,0,0,1,182.575,53.45Zm42.4-14.9a16.52,16.52,0,0,1-.2,2.7h-20.25a6.887,6.887,0,0,0,2.1,4.7,6.475,6.475,0,0,0,4.55,1.7,5.716,5.716,0,0,0,5.55-3.35h7.55a12.618,12.618,0,0,1-4.6,6.575,13.429,13.429,0,0,1-8.35,2.575,14.449,14.449,0,0,1-7.175-1.775,12.493,12.493,0,0,1-4.95-5.025,15.4,15.4,0,0,1-1.775-7.5,15.684,15.684,0,0,1,1.75-7.55,12.211,12.211,0,0,1,4.9-5,15.733,15.733,0,0,1,14.325-.05,11.965,11.965,0,0,1,4.85,4.825A14.6,14.6,0,0,1,224.975,38.55Zm-7.25-2a5.551,5.551,0,0,0-1.95-4.325,6.908,6.908,0,0,0-4.65-1.625,6.354,6.354,0,0,0-4.375,1.575,6.925,6.925,0,0,0-2.175,4.375Z" transform="translate(-54.925 -24.85)"/>
    <path id="Path_6" data-name="Path 6" class="cls-1" d="M276.375,24.9a11.121,11.121,0,0,1,8.225,3.125q3.125,3.125,3.125,8.725V53h-7V37.7a6.92,6.92,0,0,0-1.65-4.975,5.933,5.933,0,0,0-4.5-1.725,6.016,6.016,0,0,0-4.525,1.725,6.856,6.856,0,0,0-1.675,4.975V53h-7V37.7a6.92,6.92,0,0,0-1.65-4.975,5.933,5.933,0,0,0-4.5-1.725,6.081,6.081,0,0,0-4.575,1.725,6.856,6.856,0,0,0-1.675,4.975V53h-7V25.3h7v3.35a9.316,9.316,0,0,1,3.475-2.75,10.841,10.841,0,0,1,4.675-1,12.025,12.025,0,0,1,5.8,1.375,9.636,9.636,0,0,1,3.95,3.925,10.028,10.028,0,0,1,3.925-3.85A11.174,11.174,0,0,1,276.375,24.9Zm16.2,14.15a16.032,16.032,0,0,1,1.675-7.45,12.277,12.277,0,0,1,4.55-5,12.113,12.113,0,0,1,6.425-1.75,11.286,11.286,0,0,1,5.425,1.25,11.008,11.008,0,0,1,3.725,3.15V25.3h7.05V53h-7.05V48.95a10.412,10.412,0,0,1-3.725,3.225,11.4,11.4,0,0,1-5.475,1.275,11.772,11.772,0,0,1-6.375-1.8,12.6,12.6,0,0,1-4.55-5.075A16.3,16.3,0,0,1,292.575,39.05Zm21.8.1a8.979,8.979,0,0,0-1-4.375,7.051,7.051,0,0,0-2.7-2.8,7.216,7.216,0,0,0-3.65-.975,7.03,7.03,0,0,0-6.275,3.725,8.693,8.693,0,0,0-1.025,4.325,8.979,8.979,0,0,0,1.025,4.375,7.38,7.38,0,0,0,2.7,2.875,6.859,6.859,0,0,0,3.575,1,7.216,7.216,0,0,0,3.65-.975,7.051,7.051,0,0,0,2.7-2.8A8.979,8.979,0,0,0,314.375,39.15Zm29.25-14.25a10.677,10.677,0,0,1,8,3.125q3.05,3.125,3.05,8.725V53h-7V37.7a7.182,7.182,0,0,0-1.65-5.075,5.844,5.844,0,0,0-4.5-1.775,5.988,5.988,0,0,0-4.575,1.775,7.114,7.114,0,0,0-1.675,5.075V53h-7V25.3h7v3.45a9.67,9.67,0,0,1,3.575-2.825A11.059,11.059,0,0,1,343.625,24.9Zm15.9,14.15A16.032,16.032,0,0,1,361.2,31.6a12.277,12.277,0,0,1,4.55-5,12.113,12.113,0,0,1,6.425-1.75A11.286,11.286,0,0,1,377.6,26.1a11.008,11.008,0,0,1,3.725,3.15V25.3h7.05V53h-7.05V48.95a10.412,10.412,0,0,1-3.725,3.225,11.4,11.4,0,0,1-5.475,1.275,11.772,11.772,0,0,1-6.375-1.8,12.6,12.6,0,0,1-4.55-5.075A16.3,16.3,0,0,1,359.525,39.05Zm21.8.1a8.979,8.979,0,0,0-1-4.375,7.051,7.051,0,0,0-2.7-2.8,7.216,7.216,0,0,0-3.65-.975,7.03,7.03,0,0,0-6.275,3.725,8.693,8.693,0,0,0-1.025,4.325,8.979,8.979,0,0,0,1.025,4.375,7.38,7.38,0,0,0,2.7,2.875,6.859,6.859,0,0,0,3.575,1,7.216,7.216,0,0,0,3.65-.975,7.051,7.051,0,0,0,2.7-2.8A8.979,8.979,0,0,0,381.325,39.15Zm24.75-14.3a11.626,11.626,0,0,1,5.45,1.225,10.035,10.035,0,0,1,3.7,3.175V25.3h7.05V53.2a14.861,14.861,0,0,1-1.55,6.875,11.507,11.507,0,0,1-4.65,4.8,14.864,14.864,0,0,1-7.5,1.775A16.021,16.021,0,0,1,398.9,63.9a10.194,10.194,0,0,1-4.275-7.5h6.95a5.175,5.175,0,0,0,2.375,3.025,8.274,8.274,0,0,0,4.425,1.125,6.848,6.848,0,0,0,4.95-1.825q1.9-1.825,1.9-5.525V48.9a10.634,10.634,0,0,1-3.725,3.25,11.113,11.113,0,0,1-5.425,1.3,11.9,11.9,0,0,1-6.4-1.8,12.535,12.535,0,0,1-4.575-5.075,16.3,16.3,0,0,1-1.675-7.525A16.032,16.032,0,0,1,395.1,31.6a12.277,12.277,0,0,1,4.55-5A12.113,12.113,0,0,1,406.075,24.85Zm9.15,14.3a8.979,8.979,0,0,0-1-4.375,7.051,7.051,0,0,0-2.7-2.8,7.216,7.216,0,0,0-3.65-.975,7.03,7.03,0,0,0-6.275,3.725,8.693,8.693,0,0,0-1.025,4.325,8.979,8.979,0,0,0,1.025,4.375,7.38,7.38,0,0,0,2.7,2.875,6.859,6.859,0,0,0,3.575,1,7.216,7.216,0,0,0,3.65-.975,7.051,7.051,0,0,0,2.7-2.8A8.979,8.979,0,0,0,415.225,39.15Zm39.65-.6a16.52,16.52,0,0,1-.2,2.7h-20.25a6.887,6.887,0,0,0,2.1,4.7,6.475,6.475,0,0,0,4.55,1.7,5.716,5.716,0,0,0,5.55-3.35h7.55a12.618,12.618,0,0,1-4.6,6.575,13.429,13.429,0,0,1-8.35,2.575,14.449,14.449,0,0,1-7.175-1.775,12.493,12.493,0,0,1-4.95-5.025,15.4,15.4,0,0,1-1.775-7.5,15.684,15.684,0,0,1,1.75-7.55,12.211,12.211,0,0,1,4.9-5,15.733,15.733,0,0,1,14.325-.05,11.964,11.964,0,0,1,4.85,4.825A14.6,14.6,0,0,1,454.875,38.55Zm-7.25-2a5.551,5.551,0,0,0-1.95-4.325,6.908,6.908,0,0,0-4.65-1.625,6.354,6.354,0,0,0-4.375,1.575,6.925,6.925,0,0,0-2.175,4.375Zm19.35-6.95a9.631,9.631,0,0,1,8.5-4.7v7.35h-1.85a7.09,7.09,0,0,0-4.975,1.55q-1.675,1.55-1.675,5.4V53h-7V25.3h7Z" transform="translate(-241.925 9.15)"/>
  </g>
</svg>
